<svg width="164" height="29" viewBox="0 0 164 29" fill="none" xmlns="http://www.w3.org/2000/svg">
<path d="M66.0453 21.5391C68.8499 21.5391 70.3087 20.5245 70.9759 19.6162H71.1795V21.3617H75.9292V6.83017H71.123V12.2937H70.9759C70.3313 11.4068 68.9404 10.3212 66.034 10.3212C62.223 10.3212 59 12.1802 59 15.9266C59 19.5737 62.0873 21.5391 66.0453 21.5391ZM67.572 19.1337C65.2085 19.1337 63.9193 17.814 63.9193 15.9124C63.9193 14.025 65.1859 12.7265 67.572 12.7265C69.9129 12.7265 71.2247 13.9682 71.2247 15.9124C71.2247 17.8566 69.8903 19.1337 67.572 19.1337Z" fill="black"/>
<path d="M87.8062 21.5746C92.1035 21.5746 94.9985 20.2619 95.677 18.2397L91.2214 18.0552C90.7351 18.8854 89.4912 19.3182 87.8853 19.3182C85.4766 19.3182 83.9499 18.3178 83.9499 16.6929V16.6858H95.7788V15.8556C95.7788 12.1518 92.2052 10.3212 87.6139 10.3212C82.5024 10.3212 79.1889 12.5988 79.1889 15.9621C79.1889 19.4176 82.4571 21.5746 87.8062 21.5746ZM83.9499 14.8126C84.0517 13.5709 85.5557 12.5775 87.6931 12.5775C89.7852 12.5775 91.2327 13.5141 91.244 14.8126H83.9499Z" fill="black"/>
<path d="M103.74 6.83017H98.9226V21.3617H103.74V6.83017Z" fill="black"/>
<path d="M107.599 21.3617H112.417V10.4631H107.599V21.3617ZM110.019 9.05815C111.456 9.05815 112.632 8.36989 112.632 7.52553C112.632 6.68826 111.456 6 110.019 6C108.594 6 107.418 6.68826 107.418 7.52553C107.418 8.36989 108.594 9.05815 110.019 9.05815Z" fill="black"/>
<path d="M132.47 10.4631H127.37L123.774 18.261H123.593L119.985 10.4631H114.896L120.969 21.3617H126.397L132.47 10.4631Z" fill="black"/>
<path d="M142.26 21.5746C146.558 21.5746 149.453 20.2619 150.131 18.2397L145.676 18.0552C145.189 18.8854 143.946 19.3182 142.34 19.3182C139.931 19.3182 138.404 18.3178 138.404 16.6929V16.6858H150.233V15.8556C150.233 12.1518 146.66 10.3212 142.068 10.3212C136.957 10.3212 133.643 12.5988 133.643 15.9621C133.643 19.4176 136.911 21.5746 142.26 21.5746ZM138.404 14.8126C138.506 13.5709 140.01 12.5775 142.147 12.5775C144.24 12.5775 145.687 13.5141 145.698 14.8126H138.404Z" fill="black"/>
<path d="M153.377 21.3617H158.195V15.1957C158.195 13.8547 159.755 12.9323 161.881 12.9323C162.548 12.9323 163.464 13.0032 163.917 13.0955V10.4134C163.487 10.3495 162.888 10.307 162.401 10.307C160.456 10.307 158.862 11.0165 158.228 12.3646H158.047V10.4631H153.377V21.3617Z" fill="black"/>
<path fill-rule="evenodd" clip-rule="evenodd" d="M21.5 0C16.1915 0 11.8882 3.70353 11.8882 8.27215V20.0273C11.8882 21.1094 10.8691 21.9865 9.61176 21.9865C8.3545 21.9865 7.33529 21.1094 7.33529 20.0273V18.4704C7.33529 16.4449 5.69323 14.8028 3.66765 14.8028C1.64206 14.8028 0 16.4449 0 18.4704V20.245C0 24.8136 4.30334 28.5171 9.61176 28.5171C14.9202 28.5171 19.2235 24.8136 19.2235 20.245V8.27215C19.2235 7.19002 20.2426 6.31296 21.5 6.31296C22.7574 6.31296 23.7765 7.19002 23.7765 8.27215V8.4382C23.7765 9.79776 24.5639 11.0343 25.7958 11.6094C26.6744 12.0195 27.6837 12.0468 28.5832 11.6847L28.8905 11.561C30.2326 11.0207 31.1118 9.71898 31.1118 8.27215C31.1118 3.70353 26.8085 0 21.5 0ZM26.2477 15.8864C25.0613 15.4185 23.7765 16.2929 23.7765 17.5681V20.245C23.7765 24.8136 28.0798 28.5171 33.3882 28.5171C38.6967 28.5171 43 24.8136 43 20.245V18.6881C43 16.6625 41.3579 15.0205 39.3324 15.0205C37.3068 15.0205 35.6647 16.6625 35.6647 18.6881V20.245C35.6647 21.3271 34.6456 22.2042 33.3882 22.2042C32.1309 22.2042 31.1118 21.3271 31.1118 20.245V18.4689C31.1118 16.6812 29.407 15.3863 27.6849 15.8658L27.3959 15.9463C27.0169 16.0518 26.6137 16.0308 26.2477 15.8864Z" fill="black"/>
</svg>
