<svg width="32" height="27" viewBox="0 0 32 27" fill="none" xmlns="http://www.w3.org/2000/svg">
<path d="M0 11.4878C0 10.8593 0.454388 10.3229 1.07434 10.2195L8.35427 9.00623C9.13795 8.87561 9.85135 9.47996 9.85135 10.2744V25.7142C9.85135 26.4243 9.27572 27 8.56564 27H1.28571C0.575634 27 0 26.4243 0 25.7142L0 11.4878Z" fill="#FFEEE8"/>
<path d="M21.1621 17.531C21.1621 16.8737 21.6579 16.3222 22.3115 16.2525L29.5914 15.476C30.3511 15.3949 31.0135 15.9904 31.0135 16.7544V25.7142C31.0135 26.4243 30.4378 27 29.7277 27H22.4478C21.7377 27 21.1621 26.4243 21.1621 25.7142L21.1621 17.531Z" fill="#FFEEE8"/>
<path d="M10.5811 2.73106C10.5811 2.10255 11.0354 1.56616 11.6554 1.46283L18.9353 0.249514C19.719 0.1189 20.4324 0.723241 20.4324 1.51773V25.7143C20.4324 26.4244 19.8568 27 19.1467 27H11.8668C11.1567 27 10.5811 26.4244 10.5811 25.7143V2.73106Z" fill="#F7B296"/>
</svg>
