<svg width="32" height="30" viewBox="0 0 32 30" fill="none" xmlns="http://www.w3.org/2000/svg">
<path d="M17 17.4738C17 16.8302 17.4759 16.2858 18.1137 16.1997L25.5423 15.1968C26.3137 15.0926 27 15.6925 27 16.4709V28.7143C27 29.4244 26.4244 30 25.7143 30H18.2857C17.5756 30 17 29.4244 17 28.7143L17 17.4738Z" fill="#EF9C89"/>
<path d="M4 3.68461C4 3.1036 4.38965 2.59479 4.95057 2.44335L12.3791 0.437631C13.1963 0.217 14 0.832486 14 1.6789V28.7143C14 29.4244 13.4244 30 12.7143 30H5.28571C4.57563 30 4 29.4244 4 28.7143L4 3.68461Z" fill="#EF9C89"/>
<path d="M21.1621 20.531C21.1621 19.8737 21.6579 19.3222 22.3115 19.2525L29.5914 18.476C30.3511 18.3949 31.0135 18.9904 31.0135 19.7544V28.7142C31.0135 29.4243 30.4378 30 29.7277 30H22.4478C21.7377 30 21.1621 29.4243 21.1621 28.7142L21.1621 20.531Z" fill="#F7B296"/>
<path d="M10.5811 5.73106C10.5811 5.10255 11.0354 4.56616 11.6554 4.46283L18.9353 3.24951C19.719 3.1189 20.4324 3.72324 20.4324 4.51773V28.7143C20.4324 29.4244 19.8568 30 19.1467 30H11.8668C11.1567 30 10.5811 29.4244 10.5811 28.7143V5.73106Z" fill="#FED6C6"/>
<path d="M0 14.4878C0 13.8593 0.454388 13.3229 1.07434 13.2195L8.35427 12.0062C9.13795 11.8756 9.85135 12.48 9.85135 13.2744V28.7142C9.85135 29.4243 9.27572 30 8.56564 30H1.28571C0.575634 30 0 29.4243 0 28.7142L0 14.4878Z" fill="#F7BAA2"/>
</svg>
